<svg id="Layer_1" data-name="Layer 1" xmlns="http://www.w3.org/2000/svg" viewBox="0 0 30.85 30.85"><defs><style>.cls-1{fill:#1f304e;}</style></defs><path id="Icon_metro-facebook" data-name="Icon metro-facebook" class="cls-1" d="M57.82,30.19H37.26a5.14,5.14,0,0,0-5.14,5.14h0V55.9A5.14,5.14,0,0,0,37.26,61H47.54V47.54H43.69V43.69h3.85V40.8A4.82,4.82,0,0,1,52.36,36h4.82v3.85H52.36a1,1,0,0,0-1,1h0v2.89h5.3l-1,3.85H51.4V61h6.42A5.15,5.15,0,0,0,63,55.9h0V35.33a5.14,5.14,0,0,0-5.14-5.14Z" transform="translate(-32.12 -30.19)"/></svg>