<svg id="Layer_1" data-name="Layer 1" xmlns="http://www.w3.org/2000/svg" viewBox="0 0 31.51 31.5"><defs><style>.cls-1{fill:#1f304e;}</style></defs><path id="Icon_awesome-instagram" data-name="Icon awesome-instagram" class="cls-1" d="M47.54,37.53a8.08,8.08,0,1,0,8.08,8.08,8.08,8.08,0,0,0-8.08-8.08Zm0,13.34a5.26,5.26,0,1,1,5.26-5.26h0A5.28,5.28,0,0,1,47.54,50.87ZM57.84,37.2A1.89,1.89,0,1,1,56,35.32a1.89,1.89,0,0,1,1.89,1.88Zm5.35,1.92A8.73,8.73,0,0,0,54,30c-2.6-.15-10.4-.15-13,0a9.39,9.39,0,0,0-6.6,2.53,9.37,9.37,0,0,0-2.54,6.6c-.15,2.6-.15,10.4,0,13a9.29,9.29,0,0,0,2.54,6.6A9.4,9.4,0,0,0,41,61.26c2.6.15,10.4.15,13,0a8.74,8.74,0,0,0,9.15-9.15c.14-2.6.14-10.39,0-13ZM59.83,54.9a5.33,5.33,0,0,1-3,3c-2.08.82-7,.63-9.29.63s-7.22.19-9.29-.63a5.33,5.33,0,0,1-3-3c-.82-2.07-.63-7-.63-9.29s-.18-7.22.63-9.28a5.3,5.3,0,0,1,3-3c2.08-.83,7-.64,9.29-.64s7.22-.18,9.29.64a5.3,5.3,0,0,1,3,3c.82,2.07.63,7,.63,9.28S60.65,52.83,59.83,54.9Z" transform="translate(-31.79 -29.86)"/></svg>