<svg id="Layer_1" data-name="Layer 1" xmlns="http://www.w3.org/2000/svg" viewBox="0 0 30.85 30.85"><defs><style>.cls-1{fill:#1f304e;}</style></defs><path id="Icon_metro-linkedin" data-name="Icon metro-linkedin" class="cls-1" d="M57.78,30.19H37.3a5.2,5.2,0,0,0-5.18,5.18V55.86A5.19,5.19,0,0,0,37.3,61H57.78A5.2,5.2,0,0,0,63,55.86V35.37A5.21,5.21,0,0,0,57.78,30.19ZM43.68,55.26H39.83V41.76h3.85v13.5ZM41.76,39.83a1.93,1.93,0,1,1,1.92-1.93h0A1.92,1.92,0,0,1,41.76,39.83ZM57.18,55.26H53.32V47.54a1.93,1.93,0,0,0-3.85,0h0v7.72H45.61V41.76h3.86v2.39c.8-1.09,2-2.39,3.37-2.39a4.59,4.59,0,0,1,4.34,4.82Z" transform="translate(-32.12 -30.19)"/></svg>