<svg id="Layer_1" data-name="Layer 1" xmlns="http://www.w3.org/2000/svg" viewBox="0 0 18.59 16.28"><defs><style>.cls-1{fill:#0b1e2d;}</style></defs><path id="Icon_awesome-bath" data-name="Icon awesome-bath" class="cls-1" d="M112.39,87.31H97.57V82.08a1.16,1.16,0,0,1,2.15-.62,2.47,2.47,0,0,0,.25,3,.45.45,0,0,0,0,.6l.41.41a.44.44,0,0,0,.62,0L104.47,82a.43.43,0,0,0,0-.61l-.42-.41a.45.45,0,0,0-.6,0,2.46,2.46,0,0,0-2.32-.56,2.9,2.9,0,0,0-5.29,1.66v5.23h-.29a.87.87,0,0,0-.88.87v.58a.87.87,0,0,0,.88.87h.29v1.16A3.45,3.45,0,0,0,97,93.39v1.18a.87.87,0,0,0,.87.87h.58a.87.87,0,0,0,.87-.87h0v-.29h9.3v.29a.87.87,0,0,0,.87.87h.58a.87.87,0,0,0,.87-.87V93.39a3.49,3.49,0,0,0,1.16-2.6V89.63h.29a.87.87,0,0,0,.87-.87h0v-.58A.87.87,0,0,0,112.39,87.31Z" transform="translate(-94.67 -79.16)"/></svg>