<svg id="Layer_1" data-name="Layer 1" xmlns="http://www.w3.org/2000/svg" viewBox="0 0 20.7 16.27"><defs><style>.cls-1{fill:#0b1e2d;}</style></defs><g id="Icon_ionic-ios-bed" data-name="Icon ionic-ios-bed"><path id="Path_2" data-name="Path 2" class="cls-1" d="M113.31,85.08h0a1,1,0,0,0-1,1,.1.1,0,0,1-.1.1H95.75a.1.1,0,0,1-.1-.1h0a1,1,0,0,0-1-1h0a1,1,0,0,0-1,1v8.34a1,1,0,0,0,1,1h0a1,1,0,0,0,1-1v-.29a.18.18,0,0,1,.18-.18H112.1a.19.19,0,0,1,.19.18v.29a1,1,0,0,0,1,1h0a1,1,0,0,0,1-1V86.09A1,1,0,0,0,113.31,85.08Z" transform="translate(-93.62 -79.17)"/><path id="Path_3" data-name="Path 3" class="cls-1" d="M96,85.36h1a.18.18,0,0,0,.18-.18h0v-.6a.75.75,0,0,1,.74-.74h4.51a.74.74,0,0,1,.74.74v.6a.18.18,0,0,0,.18.18h1.11a.19.19,0,0,0,.19-.18h0v-.6a.74.74,0,0,1,.74-.74H110a.74.74,0,0,1,.74.74v.6a.18.18,0,0,0,.18.18h1a.36.36,0,0,0,.37-.37V80.64a1.47,1.47,0,0,0-1.47-1.47H97.13a1.48,1.48,0,0,0-1.48,1.47V85a.37.37,0,0,0,.37.37Z" transform="translate(-93.62 -79.17)"/></g></svg>