<svg id="Layer_1" data-name="Layer 1" xmlns="http://www.w3.org/2000/svg" viewBox="0 0 30.85 30.85"><defs><style>.cls-1{fill:#fff;}</style></defs><path id="Icon_metro-facebook" data-name="Icon metro-facebook" class="cls-1" d="M108.7,60.2H88.13A5.14,5.14,0,0,0,83,65.34h0V85.91a5.14,5.14,0,0,0,5.14,5.14H98.41V77.55H94.56V73.7h3.85V70.8A4.82,4.82,0,0,1,103.23,66h4.82v3.86h-4.82a1,1,0,0,0-1,1h0v2.9h5.3l-1,3.85h-4.34v13.5h6.43a5.14,5.14,0,0,0,5.14-5.14h0V65.34a5.14,5.14,0,0,0-5.14-5.14Z" transform="translate(-82.99 -60.2)"/></svg>