<svg id="Layer_3" data-name="Layer 3" xmlns="http://www.w3.org/2000/svg" viewBox="0 0 137.54 107.83"><defs><style>.cls-1{fill:#fff;}.cls-2,.cls-3{fill:none;stroke:#fff;stroke-linejoin:round;}.cls-2{stroke-linecap:round;}</style></defs><path class="cls-1" d="M46.56,55.69c-1.11.2-1.24.28-1.24,1.6v1.5a10.79,10.79,0,0,0,.12,1.89,30.51,30.51,0,0,1-4.72.64c-4.57,0-7.2-2.78-7.2-6.64,0-4.38,3.56-6.58,7.71-6.58a30.38,30.38,0,0,1,3.93.45c0,.85.2,2.33.33,3.4l-.76.14a3.66,3.66,0,0,0-2.39-2.9A5.74,5.74,0,0,0,40.68,49c-2.35,0-4.12,2-4.12,5.39s1.2,6.13,4.4,6.13a2.55,2.55,0,0,0,1.24-.27c.29-.18.45-.51.45-1.11V57.39c0-1.37-.27-1.5-1.91-1.7V55h5.82Z" transform="translate(-33.52 -48.1)"/><path class="cls-1" d="M55.7,59.12a4.46,4.46,0,0,1-3.57,2.14A4,4,0,0,1,48,57a5.16,5.16,0,0,1,1.46-3.51,4.4,4.4,0,0,1,3-1.36,3.19,3.19,0,0,1,3.21,3.17c0,.33,0,.66-.25.72s-3.11.24-5,.31c.08,2.07,1.22,3.12,2.63,3.12a3.35,3.35,0,0,0,2.22-.88ZM52.15,53c-.78,0-1.44.91-1.56,2.45L53,55.34c.27,0,.39-.06.39-.39C53.36,54,52.91,53,52.15,53Z" transform="translate(-33.52 -48.1)"/><path class="cls-1" d="M62.39,54.91c-.5-1.36-1.16-2-2.08-2a1,1,0,0,0-1,1c0,.68.49,1,1.5,1.5,1.57.7,2.65,1.36,2.65,2.9,0,2-1.85,2.9-3.55,2.9a6.55,6.55,0,0,1-2.47-.58c-.08-.45-.25-1.79-.31-2.48l.64-.11c.41,1.22,1.21,2.37,2.47,2.37a1,1,0,0,0,1.11-1c0-.6-.29-1.05-1.5-1.63s-2.53-1.31-2.53-2.93,1.27-2.74,3.33-2.74a8.72,8.72,0,0,1,2.1.29c.06.53.24,1.77.32,2.3Z" transform="translate(-33.52 -48.1)"/><path class="cls-1" d="M68.51,61.05a2.25,2.25,0,0,1-.78.21,2.14,2.14,0,0,1-2.4-2.47V53.36H64.09L64,53.12l.57-.74h.79V50.77c.67-.47,1.62-1.09,2.3-1.56l.25.15c0,.53,0,1.56,0,3h1.94a.84.84,0,0,1-.15,1H67.85v4.77c0,1.52.62,1.69,1,1.69a2.45,2.45,0,0,0,.93-.19l.2.7Z" transform="translate(-33.52 -48.1)"/><path class="cls-1" d="M70.69,61v-.66c1-.14,1.17-.22,1.17-1.6V55c0-1.3-.1-1.38-1-1.5v-.64a21.84,21.84,0,0,0,3.53-.7v6.64c0,1.32.08,1.46,1.21,1.6V61ZM73,50.94a1.42,1.42,0,0,1-1.41-1.38A1.4,1.4,0,0,1,73,48.18a1.37,1.37,0,0,1,1.4,1.38A1.4,1.4,0,0,1,73,50.94Z" transform="translate(-33.52 -48.1)"/><path class="cls-1" d="M81.3,52.15a4.33,4.33,0,0,1,4.48,4.4,4.59,4.59,0,1,1-9.17.21A4.59,4.59,0,0,1,81.3,52.15Zm-.23.78c-.84,0-1.66.87-1.66,3.27s.8,4.26,2,4.26c.74,0,1.53-.5,1.53-3.35S82.27,52.93,81.07,52.93Z" transform="translate(-33.52 -48.1)"/><path class="cls-1" d="M92.55,61v-.66c.82-.12.88-.2.88-1.54V55.5c0-1.39-.68-1.81-1.36-1.81a2.35,2.35,0,0,0-1.46.58V59c0,1.19.07,1.27.87,1.39V61H87v-.66c1-.18,1.13-.2,1.13-1.46v-4c0-1.17-.16-1.23-1-1.41v-.62a20.77,20.77,0,0,0,3.57-.74c0,.27,0,.95,0,1.4.39-.27.8-.56,1.24-.84a2.69,2.69,0,0,1,1.52-.5c1.58,0,2.57,1.15,2.57,3.13V59c0,1.21.12,1.27,1,1.41V61Z" transform="translate(-33.52 -48.1)"/><path class="cls-1" d="M116.52,49.09c-1.52.16-1.65.27-1.65,1.89v7.46c0,1.61.15,1.73,1.65,1.87V61h-6v-.72c1.53-.2,1.65-.26,1.65-1.87V54.78H106.9v3.66c0,1.61.18,1.71,1.64,1.87V61h-6v-.72c1.44-.16,1.66-.26,1.66-1.87V51c0-1.62-.18-1.77-1.66-1.89v-.72h6v.72c-1.48.14-1.64.27-1.64,1.89v2.78h5.26V51c0-1.62-.19-1.73-1.65-1.89v-.72h6Z" transform="translate(-33.52 -48.1)"/><path class="cls-1" d="M122.07,52.15a4.33,4.33,0,0,1,4.48,4.4,4.59,4.59,0,1,1-9.17.21A4.59,4.59,0,0,1,122.07,52.15Zm-.23.78c-.84,0-1.66.87-1.66,3.27s.8,4.26,2,4.26c.74,0,1.54-.5,1.54-3.35S123.05,52.93,121.84,52.93Z" transform="translate(-33.52 -48.1)"/><path class="cls-1" d="M132.88,61h-5.14v-.66c1-.12,1.13-.22,1.13-1.39V54.72c0-1-.08-1.07-1-1.27v-.6a19.1,19.1,0,0,0,3.51-.74v2.1c.88-1.34,1.58-2.06,2.37-2.06A1.18,1.18,0,0,1,135,53.32,1.88,1.88,0,0,1,134,55a.53.53,0,0,1-.61-.1c-.33-.27-.58-.58-.91-.58s-.78.25-1.13,1V59c0,1.17.14,1.23,1.5,1.39Z" transform="translate(-33.52 -48.1)"/><path class="cls-1" d="M136,61v-.66c1.06-.14,1.17-.22,1.17-1.6V55c0-1.3-.1-1.38-1-1.5v-.64a21.71,21.71,0,0,0,3.52-.7v6.64c0,1.32.08,1.46,1.21,1.6V61Zm2.28-10.09a1.41,1.41,0,0,1-1.4-1.38,1.39,1.39,0,0,1,1.42-1.38,1.36,1.36,0,0,1,1.4,1.38A1.39,1.39,0,0,1,138.25,50.94Z" transform="translate(-33.52 -48.1)"/><path class="cls-1" d="M149.9,58.26c-.39,1.09-.7,2.28-.88,2.77h-7l-.25-.33c1.61-2.55,2.92-4.83,4.42-7.42h-1c-1.32,0-1.83.08-2.64,1.89l-.67-.24c.26-.87.53-2,.72-3h.47c.14.34.43.45,1.19.45h4.89l.19.27c-1.5,2.58-2.84,4.89-4.32,7.5h1.24c1.37,0,2-.25,3-2.12Z" transform="translate(-33.52 -48.1)"/><path class="cls-1" d="M155.37,52.15a4.33,4.33,0,0,1,4.48,4.4,4.59,4.59,0,1,1-9.18.21A4.59,4.59,0,0,1,155.37,52.15Zm-.24.78c-.83,0-1.65.87-1.65,3.27s.8,4.26,2,4.26c.74,0,1.54-.5,1.54-3.35S156.34,52.93,155.13,52.93Z" transform="translate(-33.52 -48.1)"/><path class="cls-1" d="M166.62,61v-.66c.82-.12.88-.2.88-1.54V55.5c0-1.39-.68-1.81-1.37-1.81a2.39,2.39,0,0,0-1.46.58V59c0,1.19.08,1.27.88,1.39V61H161v-.66c1-.18,1.13-.2,1.13-1.46v-4c0-1.17-.15-1.23-1-1.41v-.62a20.66,20.66,0,0,0,3.56-.74c0,.27,0,.95,0,1.4.39-.27.8-.56,1.25-.84a2.65,2.65,0,0,1,1.52-.5c1.58,0,2.57,1.15,2.57,3.13V59c0,1.21.12,1.27,1.05,1.41V61Z" transform="translate(-33.52 -48.1)"/><path class="cls-2" d="M68.66,155.43s4.47-18.87,33.4-19.86c0,0,19.73-1.23,30.91,19.86" transform="translate(-33.52 -48.1)"/><polyline class="cls-3" points="42.85 96.04 24.3 68.72 39.03 60.7 46.32 60.7 58.01 88.78"/><polyline class="cls-3" points="58.88 88.59 58.4 65 92.08 69.3 87.73 93.66 90.49 95.83 98.54 67.98 72.3 64.01 58.4 64.5"/><polyline class="cls-3" points="45.09 94.31 31.34 68.23 46.32 60.7"/><polyline class="cls-3" points="40.11 60.2 34.56 37.86 55.83 31.57 61.72 64.39 69.57 64.01 65.68 34.46 55.75 31.4"/><polyline class="cls-3" points="66.62 41.6 70.73 25.77 81.74 20.15 106.07 28.26 92.96 67.14"/><line class="cls-3" x1="70.73" y1="64.01" x2="81.74" y2="20.15"/><polyline class="cls-3" points="97.89 52.52 109.63 59.79 109.63 73.07 92.17 97.39"/><line class="cls-3" x1="92.58" y1="88.59" x2="109.63" y2="59.79"/><line class="cls-3" x1="24.3" y1="68.73" x2="31.34" y2="68.23"/><line class="cls-3" x1="92.08" y1="69.3" x2="98.54" y2="67.98"/><polygon class="cls-3" points="37.92 39.88 44 37.77 44.83 41.62 38.83 43.64 37.92 39.88"/><polygon class="cls-3" points="46.32 36.95 53.05 34.84 53.97 38.69 47.33 40.71 46.32 36.95"/><polygon class="cls-3" points="39.31 46.88 45.4 44.77 46.22 48.62 40.22 50.64 39.31 46.88"/><polygon class="cls-3" points="47.71 43.95 54.45 41.84 55.37 45.69 48.72 47.71 47.71 43.95"/><polygon class="cls-3" points="40.69 54.11 46.77 52 47.6 55.85 41.6 57.87 40.69 54.11"/><polygon class="cls-3" points="49.09 51.18 55.83 49.07 56.74 52.92 50.1 54.94 49.09 51.18"/><polygon class="cls-3" points="50.72 58.41 57.46 56.3 58.38 60.15 51.73 62.17 50.72 58.41"/><path class="cls-3" d="M91.77,115A5.13,5.13,0,0,1,92,113.4a2.11,2.11,0,0,1,.91-1.2,1.78,1.78,0,0,1,.58-.22l-.1-.39-6.74,2.11,1,3.75,4.25-1.29A7.35,7.35,0,0,1,91.77,115Z" transform="translate(-33.52 -48.1)"/><path class="cls-3" d="M92.09,119.87l-3.22,1,1,3.76,2.3-.7c0-.76.09-1.52.09-2.28,0-.47,0-1,0-1.42A2.48,2.48,0,0,1,92.09,119.87Z" transform="translate(-33.52 -48.1)"/><path class="cls-3" d="M81.26,107.67l-3.37,1.06a2.63,2.63,0,0,1,.54.18,1.57,1.57,0,0,1,.42-.18,2,2,0,0,1,1.94.51,3.47,3.47,0,0,1,.73,1.26,1.78,1.78,0,0,1-.08,1.24h0l.72-.22Z" transform="translate(-33.52 -48.1)"/><polygon class="cls-3" points="61.75 67.63 72.09 69.17 71.6 73.59 61.75 72.1 61.75 67.63"/><polygon class="cls-3" points="77.02 69.96 87.36 71.5 86.87 75.92 77.02 74.43 77.02 69.96"/><polygon class="cls-3" points="61.36 74.96 71.7 76.5 71.21 80.92 61.36 79.43 61.36 74.96"/><polygon class="cls-3" points="76.63 77.28 86.97 78.82 86.48 83.24 76.63 81.75 76.63 77.28"/><path class="cls-3" d="M104.46,135.51l.34-3.17-9.92-1.52v4.42l2.65.42A45.75,45.75,0,0,1,104.46,135.51Z" transform="translate(-33.52 -48.1)"/><path class="cls-3" d="M109.53,133.12v3.29a3.66,3.66,0,0,1,.78.09,10.91,10.91,0,0,1,2.16.95,25.79,25.79,0,0,0,2.76,1L119,139l.48-4.38Z" transform="translate(-33.52 -48.1)"/><polygon class="cls-3" points="83.74 23.66 82.19 30.43 89.7 33.03 92.17 26.27 83.74 23.66"/><polygon class="cls-3" points="94.62 27.21 93.07 33.97 100.58 36.58 103.05 29.81 94.62 27.21"/><polygon class="cls-3" points="81.16 33.38 79.69 39.79 86.81 42.26 89.14 35.85 81.16 33.38"/><polygon class="cls-3" points="91.47 36.74 90 43.15 97.11 45.62 99.45 39.21 91.47 36.74"/><polygon class="cls-3" points="78.69 43.3 77.3 49.36 84.03 51.69 86.24 45.64 78.69 43.3"/><polygon class="cls-3" points="88.43 46.48 87.04 52.53 93.76 54.86 95.97 48.81 88.43 46.48"/><polygon class="cls-3" points="76.39 53.45 75.08 59.13 81.39 61.32 83.46 55.64 76.39 53.45"/><polygon class="cls-3" points="85.51 56.43 84.21 62.1 90.51 64.29 92.58 58.61 85.51 56.43"/><polygon class="cls-3" points="34.71 69.97 39.33 67.3 41.35 71.36 36.94 74.16 34.71 69.97"/><polygon class="cls-3" points="40.82 66.68 45.45 64.17 47.48 67.99 43.06 70.61 40.82 66.68"/><polygon class="cls-3" points="37.77 76.41 42.39 73.74 44.41 77.8 40 80.6 37.77 76.41"/><polygon class="cls-3" points="43.88 73.12 48.51 70.61 50.53 74.43 46.12 77.05 43.88 73.12"/><polygon class="cls-3" points="41.06 82.73 45.51 80.17 47.45 84.07 43.21 86.75 41.06 82.73"/><polygon class="cls-3" points="47.2 79.42 51.17 77.17 52.9 80.6 49.12 82.96 47.2 79.42"/><polygon class="cls-3" points="44.5 88.11 48.58 85.97 50.36 89.24 46.47 91.48 44.5 88.11"/><polygon class="cls-3" points="50.14 85.35 53.77 83.46 55.35 86.33 51.89 88.31 50.14 85.35"/><polygon class="cls-3" points="104.37 61.32 100.9 66.66 94.37 62.94 96.57 56.43 104.37 61.32"/><path class="cls-3" d="M70.87,97.17s-12.28,5.56-15.12,9.41c0,0-4.7,4-6.19-2s4.6-5.79,4.6-5.79S48,92.87,54.9,85.92c3.66-3,9.31-3,10.8,3.36,0,0,.79-1.81,2.38-1.69" transform="translate(-33.52 -48.1)"/><path class="cls-3" d="M133.44,94.57s14.38,5.06,16.46,7c0,0,8.53,5.13,8.41-3.49s-6.83-6.66-6.83-6.66,5.34-7.16.25-12.5-9.68-5.1-13.84-3.11" transform="translate(-33.52 -48.1)"/></svg>