<svg id="Layer_1" data-name="Layer 1" xmlns="http://www.w3.org/2000/svg" viewBox="0 0 213.12 189.42"><defs><style>.cls-1{opacity:0.5;}.cls-2{fill:#0b1e2d;}</style></defs><g id="Group_105" data-name="Group 105" class="cls-1"><path id="Icon_awesome-house-damage" data-name="Icon awesome-house-damage" class="cls-2" d="M298.75,335.42,217.9,406.71a18.35,18.35,0,0,1-2,1.24v68.42a5.92,5.92,0,0,0,5.92,5.92H277l-13.77-26.94,38.52-23.68-22.26-44.1,54.78,50.61-38.52,23.68,14.75,20.42h65.19a5.92,5.92,0,0,0,5.92-5.92V408a17.74,17.74,0,0,1-1.95-1.18ZM403.34,380.3l-21.71-19.18v-50.5a5.92,5.92,0,0,0-5.92-5.91H352a5.92,5.92,0,0,0-5.92,5.91v19.12l-37.46-33.06a14.74,14.74,0,0,0-19.78,0l-94.7,83.6a5.93,5.93,0,0,0-.45,8.37l7.94,8.81a5.92,5.92,0,0,0,8.36.44l84.82-74.83a5.92,5.92,0,0,1,7.84,0l84.84,74.83a5.93,5.93,0,0,0,8.36-.45l7.95-8.81a5.92,5.92,0,0,0-.48-8.35h0Z" transform="translate(-192.19 -292.87)"/><rect id="Rectangle_125" data-name="Rectangle 125" class="cls-2" x="68.41" y="89.45" width="73.66" height="99.98"/></g></svg>