<svg id="Layer_1" data-name="Layer 1" xmlns="http://www.w3.org/2000/svg" viewBox="0 0 31.51 31.5"><defs><style>.cls-1{fill:#fff;}</style></defs><path id="Icon_awesome-instagram" data-name="Icon awesome-instagram" class="cls-1" d="M106.5,80.48a8.08,8.08,0,1,0,8.08,8.08,8.08,8.08,0,0,0-8.08-8.08Zm0,13.33a5.25,5.25,0,1,1,5.25-5.25h0A5.26,5.26,0,0,1,106.5,93.81Zm10.29-13.66a1.89,1.89,0,1,1-1.88-1.88,1.88,1.88,0,0,1,1.88,1.88Zm5.35,1.92A8.73,8.73,0,0,0,113,72.92c-2.6-.15-10.4-.15-13,0a8.73,8.73,0,0,0-9.15,9.14c-.15,2.6-.15,10.4,0,13A8.73,8.73,0,0,0,100,104.2c2.6.15,10.4.15,13,0a8.71,8.71,0,0,0,9.14-9.14c.15-2.6.15-10.39,0-13Zm-3.36,15.78a5.33,5.33,0,0,1-3,3c-2.07.82-7,.63-9.29.63s-7.22.18-9.28-.63a5.3,5.3,0,0,1-3-3c-.83-2.08-.64-7-.64-9.29s-.18-7.22.64-9.29a5.3,5.3,0,0,1,3-3c2.07-.82,7-.63,9.28-.63s7.22-.18,9.29.63a5.33,5.33,0,0,1,3,3c.82,2.08.63,7,.63,9.29S119.6,95.78,118.78,97.85Z" transform="translate(-90.74 -72.81)"/></svg>