<svg id="Layer_1" data-name="Layer 1" xmlns="http://www.w3.org/2000/svg" viewBox="0 0 30.85 30.85"><defs><style>.cls-1{fill:#fff;}</style></defs><path id="Icon_metro-linkedin" data-name="Icon metro-linkedin" class="cls-1" d="M114.21,71.88H93.72a5.2,5.2,0,0,0-5.18,5.18V97.54a5.21,5.21,0,0,0,5.19,5.19h20.48a5.2,5.2,0,0,0,5.18-5.19V77.06A5.19,5.19,0,0,0,114.21,71.88Zm-14.1,25.06H96.26V83.45h3.85V97ZM98.18,81.52a1.93,1.93,0,1,1,1.93-1.93h0A1.93,1.93,0,0,1,98.18,81.52Zm15.43,15.42h-3.86V89.23a1.93,1.93,0,1,0-3.85,0h0v7.71H102V83.45h3.86v2.39c.8-1.09,2-2.39,3.37-2.39a4.61,4.61,0,0,1,4.34,4.82Z" transform="translate(-88.54 -71.88)"/></svg>