<svg id="Layer_1" data-name="Layer 1" xmlns="http://www.w3.org/2000/svg" viewBox="0 0 42.63 42.76"><defs><style>.cls-1{fill:#fff;}</style></defs><path id="Icon_ionic-ios-search" data-name="Icon ionic-ios-search" class="cls-1" d="M124.79,105.56,112.93,93.44a17.32,17.32,0,0,0,3.72-10.73,17.08,17.08,0,1,0-6.29,13.37l11.78,12a1.83,1.83,0,0,0,2.58.07A1.88,1.88,0,0,0,124.79,105.56ZM99.65,96.22a13.17,13.17,0,0,1-9.44-4,13.6,13.6,0,0,1,0-19.08A13.25,13.25,0,0,1,108.93,73l.16.16a13.6,13.6,0,0,1,0,19.08A13.17,13.17,0,0,1,99.65,96.22Z" transform="translate(-82.65 -65.92)"/></svg>