<svg id="Layer_1" data-name="Layer 1" xmlns="http://www.w3.org/2000/svg" viewBox="0 0 37.61 36"><defs><style>.cls-1{fill:#b8c7d9;}</style></defs><path id="Icon_awesome-star" data-name="Icon awesome-star" class="cls-1" d="M102,70.56l-4.59,9.3-10.27,1.5a2.26,2.26,0,0,0-1.9,2.56,2.22,2.22,0,0,0,.65,1.28l7.43,7.24-1.75,10.23A2.24,2.24,0,0,0,94.78,105l9.19-4.83,9.19,4.83a2.25,2.25,0,0,0,3-1,2.32,2.32,0,0,0,.22-1.42l-1.76-10.23,7.44-7.24a2.25,2.25,0,0,0,0-3.18,2.36,2.36,0,0,0-1.29-.66l-10.27-1.5L106,70.56a2.25,2.25,0,0,0-4,0Z" transform="translate(-85.16 -69.3)"/></svg>