<svg id="Layer_1" data-name="Layer 1" xmlns="http://www.w3.org/2000/svg" viewBox="0 0 79.98 84.8"><defs><style>.cls-1{fill:#828d95;}</style></defs><g id="Group_572" data-name="Group 572"><path id="Icon_open-person" data-name="Icon open-person" class="cls-1" d="M19.1,54.8A20,20,0,0,0,0,74.8v10H80v-10a20,20,0,0,0-19.1-20c-5.4,6.1-12.8,10-20.9,10S24.49,60.9,19.1,54.8Z" transform="translate(0)"/><path id="Icon_awesome-robot" data-name="Icon awesome-robot" class="cls-1" d="M8.94,24.84V37.26A3.11,3.11,0,0,0,12,40.37h3.12V21.73H12a3.1,3.1,0,0,0-3.1,3.1ZM54,9.31H43.1V3.1a3.11,3.11,0,0,0-6.21,0V9.31H26a7.78,7.78,0,0,0-7.77,7.76h0V43.47c0,3.43,9.32,9.41,9.32,9.41S34,56.76,39.9,57s12.51-4.07,12.51-4.07,9.32-6,9.32-9.41V17.08A7.77,7.77,0,0,0,54,9.31ZM33.78,40.37H27.57V37.26h6.21Zm-3.1-11.65a3.88,3.88,0,1,1,3.88-3.88,3.89,3.89,0,0,1-3.88,3.88ZM43.1,40.37H36.89V37.26H43.1Zm9.31,0H46.2V37.26h6.21Zm-3.1-11.65a3.88,3.88,0,1,1,3.88-3.88,3.88,3.88,0,0,1-3.88,3.88Zm18.63-7H64.83V40.37h3.11a3.1,3.1,0,0,0,3.1-3.1h0V24.84a3.11,3.11,0,0,0-3.1-3.11Z" transform="translate(0)"/></g></svg>